<svg xmlns:xlink="http://www.w3.org/1999/xlink" xmlns="http://www.w3.org/2000/svg" size="40" zoomAndPan="magnify"
     viewBox="0 0 30 30.000001" height="40" preserveAspectRatio="xMidYMid meet" version="1.0">
    <defs>
        <clipPath id="92d814eeeb">
            <path d="M 0.484375 0 L 29 0 L 29 27.40625 L 0.484375 27.40625 Z M 0.484375 0 " clip-rule="nonzero"/>
        </clipPath>
        <clipPath id="88336d8e1b">
            <path d="M 1 0 L 29.515625 0 L 29.515625 27 L 1 27 Z M 1 0 " clip-rule="nonzero"/>
        </clipPath>
    </defs>
    <g clip-path="url(#92d814eeeb)">
        <path fill="#000000"
              d="M 28.167969 10.773438 C 28.023438 10.328125 27.773438 9.957031 27.414062 9.65625 C 27.054688 9.351562 26.640625 9.171875 26.175781 9.105469 L 19.617188 8.15625 L 16.683594 2.242188 C 16.476562 1.824219 16.175781 1.492188 15.773438 1.242188 C 15.375 0.996094 14.941406 0.875 14.472656 0.875 C 14.003906 0.875 13.570312 0.996094 13.167969 1.242188 C 12.769531 1.492188 12.46875 1.824219 12.261719 2.242188 L 9.328125 8.15625 L 2.769531 9.105469 C 2.304688 9.171875 1.894531 9.355469 1.535156 9.65625 C 1.175781 9.957031 0.921875 10.328125 0.777344 10.773438 C 0.632812 11.21875 0.617188 11.664062 0.730469 12.117188 C 0.84375 12.570312 1.066406 12.960938 1.402344 13.285156 L 6.148438 17.890625 L 5.027344 24.386719 C 4.949219 24.847656 4.996094 25.292969 5.175781 25.726562 C 5.351562 26.160156 5.628906 26.511719 6.007812 26.785156 C 6.386719 27.058594 6.8125 27.214844 7.277344 27.246094 C 7.746094 27.28125 8.1875 27.191406 8.605469 26.972656 L 14.472656 23.902344 L 20.339844 26.972656 C 20.753906 27.191406 21.195312 27.28125 21.664062 27.246094 C 22.132812 27.214844 22.554688 27.058594 22.933594 26.785156 C 23.316406 26.511719 23.59375 26.160156 23.769531 25.726562 C 23.945312 25.292969 23.996094 24.847656 23.914062 24.386719 L 22.796875 17.890625 L 27.542969 13.285156 C 27.878906 12.960938 28.105469 12.570312 28.21875 12.117188 C 28.332031 11.664062 28.3125 11.214844 28.167969 10.773438 Z M 28.167969 10.773438 "
              fill-opacity="0.3" fill-rule="nonzero"/>
    </g>
    <g clip-path="url(#88336d8e1b)">
        <path fill="#ffffff"
              d="M 29.21875 9.726562 C 29.074219 9.28125 28.824219 8.910156 28.464844 8.609375 C 28.105469 8.304688 27.695312 8.125 27.230469 8.058594 L 20.667969 7.109375 L 17.734375 1.195312 C 17.527344 0.777344 17.226562 0.445312 16.828125 0.199219 C 16.429688 -0.0507812 15.996094 -0.171875 15.523438 -0.167969 C 15.054688 -0.171875 14.621094 -0.0507812 14.222656 0.199219 C 13.824219 0.445312 13.519531 0.777344 13.316406 1.195312 L 10.382812 7.109375 L 3.820312 8.058594 C 3.355469 8.125 2.945312 8.308594 2.585938 8.609375 C 2.226562 8.910156 1.976562 9.28125 1.832031 9.726562 C 1.683594 10.167969 1.667969 10.617188 1.78125 11.070312 C 1.894531 11.523438 2.117188 11.914062 2.453125 12.238281 L 7.199219 16.84375 L 6.082031 23.34375 C 6 23.800781 6.050781 24.25 6.226562 24.679688 C 6.402344 25.113281 6.679688 25.464844 7.0625 25.742188 C 7.441406 26.015625 7.863281 26.167969 8.332031 26.203125 C 8.800781 26.234375 9.242188 26.144531 9.65625 25.925781 L 15.523438 22.859375 L 21.390625 25.925781 C 21.808594 26.144531 22.25 26.234375 22.71875 26.203125 C 23.183594 26.167969 23.609375 26.015625 23.988281 25.742188 C 24.367188 25.464844 24.644531 25.113281 24.820312 24.679688 C 25 24.25 25.046875 23.800781 24.96875 23.34375 L 23.847656 16.84375 L 28.59375 12.238281 C 28.933594 11.914062 29.15625 11.527344 29.269531 11.070312 C 29.382812 10.617188 29.367188 10.171875 29.21875 9.726562 Z M 29.21875 9.726562 "
              fill-opacity="1" fill-rule="nonzero"/>
    </g>
    <path fill="#ffcc4d"
          d="M 16.570312 1.769531 L 19.535156 7.742188 C 19.714844 8.105469 20.007812 8.320312 20.414062 8.378906 L 27.042969 9.335938 C 28 9.472656 28.382812 10.644531 27.691406 11.316406 L 22.894531 15.964844 C 22.601562 16.25 22.488281 16.59375 22.558594 16.992188 L 23.691406 23.558594 C 23.851562 24.507812 22.851562 25.230469 21.996094 24.785156 L 16.066406 21.683594 C 15.707031 21.492188 15.34375 21.492188 14.980469 21.683594 L 9.050781 24.785156 C 8.195312 25.230469 7.195312 24.507812 7.359375 23.558594 L 8.492188 16.992188 C 8.5625 16.59375 8.449219 16.25 8.15625 15.964844 L 3.359375 11.316406 C 2.667969 10.644531 3.050781 9.472656 4.007812 9.335938 L 10.636719 8.378906 C 11.039062 8.320312 11.332031 8.105469 11.511719 7.742188 L 14.476562 1.769531 C 14.90625 0.90625 16.140625 0.90625 16.570312 1.769531 Z M 16.570312 1.769531 "
          fill-opacity="1" fill-rule="nonzero"/>
    <path fill="#000000"
          d="M 22.539062 25.175781 C 22.304688 25.175781 22.082031 25.121094 21.875 25.011719 L 15.945312 21.910156 C 15.664062 21.765625 15.382812 21.765625 15.101562 21.910156 L 9.171875 25.011719 C 8.933594 25.136719 8.675781 25.191406 8.40625 25.171875 C 8.136719 25.152344 7.890625 25.0625 7.671875 24.902344 C 7.453125 24.746094 7.289062 24.539062 7.1875 24.289062 C 7.085938 24.039062 7.058594 23.78125 7.105469 23.515625 L 8.234375 16.949219 C 8.289062 16.636719 8.203125 16.371094 7.976562 16.152344 L 3.179688 11.5 C 2.984375 11.3125 2.855469 11.085938 2.789062 10.824219 C 2.722656 10.5625 2.734375 10.300781 2.816406 10.046875 C 2.902344 9.789062 3.046875 9.574219 3.253906 9.398438 C 3.460938 9.226562 3.699219 9.117188 3.96875 9.082031 L 10.597656 8.121094 C 10.914062 8.078125 11.140625 7.910156 11.28125 7.628906 L 14.246094 1.652344 C 14.363281 1.410156 14.539062 1.21875 14.769531 1.074219 C 15 0.933594 15.253906 0.859375 15.523438 0.863281 C 15.796875 0.859375 16.046875 0.933594 16.277344 1.074219 C 16.507812 1.21875 16.683594 1.410156 16.804688 1.652344 L 19.769531 7.628906 C 19.910156 7.910156 20.136719 8.074219 20.449219 8.121094 L 27.078125 9.078125 C 27.347656 9.117188 27.585938 9.226562 27.792969 9.398438 C 28 9.574219 28.148438 9.789062 28.230469 10.046875 C 28.316406 10.300781 28.324219 10.5625 28.257812 10.824219 C 28.195312 11.085938 28.066406 11.3125 27.871094 11.5 L 23.074219 16.152344 C 22.847656 16.371094 22.757812 16.636719 22.8125 16.949219 L 23.945312 23.515625 C 23.980469 23.722656 23.96875 23.925781 23.914062 24.128906 C 23.859375 24.332031 23.765625 24.511719 23.628906 24.671875 C 23.496094 24.832031 23.332031 24.957031 23.140625 25.042969 C 22.949219 25.132812 22.75 25.175781 22.539062 25.175781 Z M 15.523438 21.292969 C 15.757812 21.292969 15.980469 21.347656 16.1875 21.453125 L 22.117188 24.554688 C 22.429688 24.71875 22.785156 24.691406 23.074219 24.484375 C 23.359375 24.28125 23.492188 23.949219 23.433594 23.605469 L 22.300781 17.035156 C 22.214844 16.546875 22.351562 16.128906 22.710938 15.78125 L 27.507812 11.128906 C 27.761719 10.886719 27.847656 10.539062 27.738281 10.207031 C 27.628906 9.871094 27.355469 9.640625 27.003906 9.589844 L 20.375 8.632812 C 19.882812 8.5625 19.523438 8.304688 19.300781 7.855469 L 16.335938 1.882812 C 16.183594 1.566406 15.878906 1.378906 15.523438 1.378906 C 15.171875 1.378906 14.867188 1.566406 14.710938 1.882812 L 11.746094 7.855469 C 11.523438 8.304688 11.167969 8.5625 10.671875 8.632812 L 4.042969 9.589844 C 3.695312 9.640625 3.421875 9.871094 3.3125 10.207031 C 3.203125 10.539062 3.289062 10.886719 3.539062 11.128906 L 8.335938 15.78125 C 8.695312 16.128906 8.832031 16.546875 8.746094 17.035156 L 7.613281 23.605469 C 7.554688 23.949219 7.691406 24.28125 7.976562 24.484375 C 8.261719 24.691406 8.617188 24.71875 8.929688 24.554688 L 14.859375 21.453125 C 15.066406 21.347656 15.289062 21.292969 15.523438 21.292969 Z M 15.523438 21.292969 "
          fill-opacity="1" fill-rule="nonzero"/>
</svg>
